<?xml version="1.0" encoding="UTF-8"?>
<svg width="40px" height="40px" viewBox="0 0 40 40" version="1.1" xmlns="http://www.w3.org/2000/svg" xmlns:xlink="http://www.w3.org/1999/xlink">
    <!-- Generator: Sketch 59.1 (86144) - https://sketch.com -->
    <title>Group 46</title>
    <desc>Created with Sketch.</desc>
    <g id="Welcome" stroke="none" stroke-width="1" fill="none" fill-rule="evenodd">
        <g id="Group-46">
            <rect id="Rectangle" fill="#FFDD00" x="0" y="0" width="40" height="40" rx="20"></rect>
            <path d="M23.033434,24.6272602 C23.0451567,18.4747077 23.0632177,16.8748103 23.1209508,16.8748103 C23.1609607,16.8748103 24.9362335,18.615839 27.0660015,20.7437628 C29.1957694,22.8716867 30.9580349,24.6127153 30.9821471,24.6127153 C31.0062594,24.6127153 31.0259877,23.0746426 31.0259877,21.1947762 L31.0259877,17.7768371 L25.7995094,12.5550853 C22.9249466,9.68312178 20.5467158,7.33333333 20.5145525,7.33333333 C20.4089752,7.33333333 10.1268536,17.6549442 10.0640028,17.8240186 C9.97605092,18.0606175 9.9799981,24.5333919 10.0681276,24.5878074 C10.1066606,24.6115994 11.7016399,23.0610646 13.9846005,20.7804678 C16.102906,18.664355 17.8556466,16.9329901 17.8795789,16.9329901 C17.9035112,16.9329901 17.9230922,20.3644065 17.9230922,24.5583603 C17.9230922,29.7304906 17.9425939,32.2201359 17.9837096,32.2968884 C18.042502,32.406638 18.1192309,32.4095889 20.5314949,32.3948782 L23.0186626,32.3797101 L23.033434,24.6272602 Z" id="path1310-path" fill="#000000" fill-rule="nonzero"></path>
        </g>
    </g>
</svg>