<svg xmlns="http://www.w3.org/2000/svg" data-v-dcd896ce="" data-v-d689731a="" aria-hidden="true" class="svg-icon" viewBox="0 0 37.94 37.26" width="37.94"  height="37.26" ><g fill="#a1a1b2" id="icon-qg_fish_h"><g data-name="图层 2"><path d="M37.16 5.01H25.57a13.24 13.24 0 00-10.4-5 7.73 7.73 0 00-1.59.1c-.2 0-.29.1-.49.2a.9.9 0 000 1.19 12.17 12.17 0 012.38 3.51h-2.78a12.76 12.76 0 00-6.64 23.62 9.64 9.64 0 003.27 7.93 1.94 1.94 0 001.19.69.81.81 0 00.79-.83.73.73 0 00-.09-.35 8.39 8.39 0 01-.2-6.06 8.41 8.41 0 016-.49.78.78 0 00.79-1.3 3.91 3.91 0 00-.69-.6 9.66 9.66 0 00-7.93-2.37 6 6 0 011.79-4.86 1.14 1.14 0 01.39-.3 5 5 0 01.3 1.89.93.93 0 00.4.79.77.77 0 00.49.1.7.7 0 00.4-.1 7 7 0 00.79-.5 5.76 5.76 0 002.17-3.54h4.86v.59a4 4 0 01-1.19 2.87.79.79 0 00-.2.8.87.87 0 00.59.59 3.07 3.07 0 001 .1 5.71 5.71 0 005.64-4.56c0-.2.1-.29.1-.49a12.8 12.8 0 009.32-6 13.23 13.23 0 001.88-6.68c.15-.69-.25-.94-.75-.94zm-26.55 5.5a7.49 7.49 0 00-5.25 5.5.88.88 0 01-1 .6.89.89 0 01-.6-1 9.29 9.29 0 016.35-6.64.79.79 0 011 .54.74.74 0 01-.46.93zM23 11.9a.81.81 0 01-.3 1.09.7.7 0 01-.4.1.67.67 0 01-.69-.4 3.86 3.86 0 010-3.86.81.81 0 011.09-.3.83.83 0 01.3 1.09 2.32 2.32 0 000 2.28zm3.17 0a.8.8 0 01-.25 1.1.7.7 0 01-.4.1.67.67 0 01-.69-.4 3.86 3.86 0 010-3.86.81.81 0 011.08-.31.83.83 0 01.3 1.1 2.29 2.29 0 00-.04 2.27zm5.84-2.27a.77.77 0 01-.79-.76.84.84 0 01.79-.81.79.79 0 110 1.57z" fill="#ffffff" data-name="图层 1-2"></path></g></g></svg>