<svg xmlns="http://www.w3.org/2000/svg" data-v-dcd896ce="" data-v-d689731a="" aria-hidden="true" class="svg-icon" viewBox="0 0 38.04 36.95" width="38.04"  height="36.95" ><g fill="#a1a1b2" id="icon-qg_fish"><defs><style>#icon-qg_fish .cls-1{fill:#a1a1b2}</style></defs><g id="icon-qg_fish_图层_2" data-name="图层 2"><g id="icon-qg_fish_图层_1-2" data-name="图层 1-2"><path class="cls-1" d="M36.47 5.29h-11A13 13 0 0015.28.52a9.85 9.85 0 00-1.63.1 1 1 0 00-.76.38 1.46 1.46 0 00-.29 1 1.24 1.24 0 00.4 1 9 9 0 011.8 2.39h-1.91a12.8 12.8 0 00-7 23.61 9.72 9.72 0 003.25 7.63l.09.1a2.08 2.08 0 001.43.76 3.24 3.24 0 00.86-.19 1.31 1.31 0 00.38-1.53 6.73 6.73 0 01-.16-5.23 7.19 7.19 0 015.26-.3 1.32 1.32 0 001.44-.57 1.29 1.29 0 00-.1-1.54l-.67-.67A10.25 10.25 0 0010.23 25a5.25 5.25 0 011.33-3.54c0 .2.1.48.1.76a1.26 1.26 0 00.57 1.15 1.11 1.11 0 001.34 0l.86-.57a6.26 6.26 0 002.1-3.35h3.91v.1a3.58 3.58 0 01-1 2.39 1.07 1.07 0 00-.29 1.24 1.22 1.22 0 001 .86 6.07 6.07 0 007-4.68v-.1a13.52 13.52 0 009.07-6A12.43 12.43 0 0038 6.44a2 2 0 00-1.53-1.15zm-8.11 7.55a1.2 1.2 0 00.38.95 1.42 1.42 0 001 .38H32a10.59 10.59 0 01-6.11 2.68 1.3 1.3 0 00-1.24 1.33 1.52 1.52 0 01-.09.67V19a3.47 3.47 0 01-1.91 2.39 5.32 5.32 0 00.17-1.82 5 5 0 00-.29-1.71 1.19 1.19 0 00-1.14-1h-6.11a1.19 1.19 0 00-1.15 1.26v.07a3.85 3.85 0 01-.48 1.62 11.66 11.66 0 00-.47-1.24c-.2-.19-.48-.47-.77-.47a1.08 1.08 0 00-.95.19A7.41 7.41 0 0010 19.33a8 8 0 00-2.2 7.35A1.3 1.3 0 009 27.73a.68.68 0 00.48-.09 8 8 0 013 0 9.83 9.83 0 00-2.48.85 1.25 1.25 0 00-.57.67 8 8 0 00-.67 2.29 7.8 7.8 0 01-.29-3v-.09a1.3 1.3 0 00-.67-1.14 10.65 10.65 0 01-5.3-9.07A10.32 10.32 0 0112.79 7.87c4.11.1 4.2 0 4.4-.09a1.3 1.3 0 00.66-1.63 9.42 9.42 0 00-1.43-3A10.71 10.71 0 0124 7.39a1.07 1.07 0 001 .48h10.14a8.65 8.65 0 01-1.25 3.73H29.6a1.26 1.26 0 00-1.24 1.24z" transform="translate(.03 -.52)" fill="#a1a1b2"></path><circle class="cls-1" cx="31.44" cy="9.07" r="1.15" fill="#a1a1b2"></circle><path class="cls-1" d="M11.08 9.21a1.27 1.27 0 00-.86 0 9.39 9.39 0 00-6.5 6.68 1.21 1.21 0 00.1 1 .79.79 0 00.76.66h.29a1.54 1.54 0 00.67-.09 1.68 1.68 0 00.57-.94 6.88 6.88 0 014.68-4.87 1.28 1.28 0 00.86-1.52 1 1 0 00-.57-.92zm15.18.57a1 1 0 00-.58-.78 1.28 1.28 0 00-1.81.38 4.15 4.15 0 000 4.2 1.25 1.25 0 001.72.38h.09a2.56 2.56 0 00.58-.76 1.21 1.21 0 00-.1-1 1.62 1.62 0 010-1.62.85.85 0 00.1-.8z" transform="translate(.03 -.52)" fill="#a1a1b2"></path><path class="cls-1" d="M23.2 10.64A1.26 1.26 0 0022.72 9a.83.83 0 00-.95-.1 1.26 1.26 0 00-.77.6 4.13 4.13 0 000 4.21 1.19 1.19 0 001.66.38 1.45 1.45 0 00.58-.77 1.14 1.14 0 00-.1-.95 1.82 1.82 0 01.06-1.73z" transform="translate(.03 -.52)" fill="#a1a1b2"></path></g></g></g></svg>