<svg xmlns="http://www.w3.org/2000/svg" data-v-dcd896ce="" data-v-d689731a="" aria-hidden="true" class="svg-icon" viewBox="0 0 38 33.66" width="38"  height="33.66" ><g fill="#a1a1b2" id="icon-qg_game_h"><defs><style>#icon-qg_game_h .cls-1{fill:#fff}</style></defs><g id="icon-qg_game_h_图层_2" data-name="图层 2"><g id="icon-qg_game_h_图层_1-2" data-name="图层 1-2"><path class="cls-1" d="M38 5.74a3.55 3.55 0 10-4.69 3.33V24.8h-.12v-2.49a1.14 1.14 0 00-1.13-1.14h-.65v-4A1.14 1.14 0 0030.28 16H1.14A1.14 1.14 0 000 17.16v17.52a1.14 1.14 0 001.14 1.14h29.14a1.13 1.13 0 001.13-1.13v-4h.64a1.11 1.11 0 001.14-1.09v-2.5h2.38a1.13 1.13 0 001-1.24 1.15 1.15 0 00-1-1V9.07A3.53 3.53 0 0038 5.74zM34.49 7a1.25 1.25 0 01-1.3-1.21 1.27 1.27 0 012.52-.29 1.48 1.48 0 010 .21v.06A1.27 1.27 0 0134.49 7zM31 23.39v5h.5v-5zm-1.81-1.08v11.24H2.31V18.3h26.83z" transform="translate(0 -2.16)" fill="#ffffff"></path><path class="cls-1" d="M27.09 19.59H4.33a.78.78 0 00-.8.76v11.14a.77.77 0 00.75.81h22.77a.82.82 0 00.8-.81V20.4a.77.77 0 00-.75-.8zM9.85 23.51a3.12 3.12 0 00-1 1.71 7.84 7.84 0 00-.38 2.41v.43a.41.41 0 00.1.3.27.27 0 00.23.12h.42v.3H6.66v-.31h.21c.27 0 .4-.15.4-.47a7.5 7.5 0 01.37-2.48 7 7 0 011.19-2H6.89a.53.53 0 00-.46.26 2.18 2.18 0 00-.24.69h-.31l.27-1.65h3.7zm7.67 0a3 3 0 00-1 1.71 7.56 7.56 0 00-.39 2.41v.43a.45.45 0 00.1.3.3.3 0 00.24.12h.41v.3h-2.56v-.31h.22c.26 0 .4-.15.4-.47a7.21 7.21 0 01.37-2.48 6.88 6.88 0 011.19-2h-1.95a.51.51 0 00-.45.26 2.49 2.49 0 00-.25.69h-.31l.28-1.65h3.7zm7.66 0a3.12 3.12 0 00-1 1.71 7.84 7.84 0 00-.38 2.41v.43a.41.41 0 00.1.3.27.27 0 00.23.12h.42v.3H22v-.31h.21c.27 0 .4-.15.4-.47a7.48 7.48 0 01.39-2.48 6.64 6.64 0 011.18-2h-2a.53.53 0 00-.46.26 2.18 2.18 0 00-.24.69h-.31l.27-1.65h3.7z" transform="translate(0 -2.16)" fill="#ffffff"></path></g></g></g></svg>