<svg xmlns="http://www.w3.org/2000/svg" data-v-dcd896ce="" data-v-d689731a="" aria-hidden="true" class="svg-icon" viewBox="0 0 29.02 36.04" width="29.02"  height="36.04" ><g fill="#ffffff" id="icon-qg_hot_h"><g data-name="图层 2"><path d="M14.35 36.02C6 36.02 0 30.13 0 22.02c0-4.3 2.55-8.94 2.67-9.14a1.11 1.11 0 012.05.25 18.32 18.32 0 001.64 4.09 6.9 6.9 0 001.92 2.14A21.29 21.29 0 018 11.02C9.61 2.26 16.42.17 16.71.02a1.13 1.13 0 011.38.8.92.92 0 010 .52c0 .06-1.14 6.19 1.25 11.41.25.54.52 1.06.82 1.58a15.23 15.23 0 01.46-2.31 6.55 6.55 0 013.27-4.19 1.17 1.17 0 011.62 1.19 8.37 8.37 0 001.45 5.18A13 13 0 0129 22.02c0 8.12-6.18 14-14.65 14z" fill="#ffffff" data-name="图层 1-2"></path></g></g></svg>