<svg xmlns="http://www.w3.org/2000/svg" data-v-dcd896ce="" data-v-d689731a="" aria-hidden="true" class="svg-icon" viewBox="0 0 38 38" width="38"  height="38" ><g fill="#a1a1b2" id="icon-qg_hot"><path d="M18.9 37c-8.4 0-14.4-5.9-14.4-14 0-4.3 2.6-8.9 2.7-9.1.3-.5 1-.7 1.5-.4.3.1.5.4.5.7.4 1.4.9 2.8 1.6 4.1.5.8 1.1 1.6 1.9 2.1-.6-2.7-.7-5.6-.3-8.3 1.6-8.8 8.4-10.9 8.7-11 .6-.2 1.2.2 1.4.8.1.2.1.4 0 .5 0 .1-1.1 6.2 1.3 11.4.3.5.5 1.1.8 1.6.1-.8.2-1.6.5-2.3.4-1.8 1.6-3.3 3.3-4.2.6-.3 1.2 0 1.5.6.1.1.1.3.1.5-.1 1.8.4 3.7 1.5 5.2 1.5 2.3 2.2 5 2.1 7.8-.1 8.1-6.3 14-14.7 14zM8.1 17.7c-.7 1.6-1 3.4-1 5.2 0 6.6 4.9 11.4 11.8 11.4s12-4.8 12-11.4c.2-2.3-.4-4.5-1.7-6.4-.7-1.2-1.3-2.6-1.5-4-.2.4-.4.8-.6 1.3-.4 1.7-.6 3.4-.5 5.1 0 .5-.3.9-.7 1.1-.5.2-1 0-1.2-.4-1.1-1.5-2-3.1-2.9-4.7-1.4-3.3-1.9-6.8-1.5-10.4-2.9 1.8-4.9 4.8-5.4 8.2-.4 3.2-.2 6.5.8 9.5.1.4.1.8-.2 1.1-.2.3-.7.5-1.1.4-2.2-.6-4.1-2.1-5.4-4-.3-.7-.6-1.3-.9-2z" fill="#a1a1b2"></path></g></svg>