<svg xmlns="http://www.w3.org/2000/svg" data-v-dcd896ce="" data-v-d689731a="" aria-hidden="true" class="svg-icon" viewBox="0 0 36 36" width="36"  height="36" ><g fill="#ffffff" id="icon-qg_lottery_h"><defs><style>#icon-qg_lottery_h .cls-1{fill:#fff}</style></defs><g id="icon-qg_lottery_h_图层_2" data-name="图层 2"><g id="icon-qg_lottery_h_图层_1-2" data-name="图层 1-2"><path class="cls-1" d="M23.58 18.09h-.11a1.18 1.18 0 00-1.06 1.27v1.78a1.17 1.17 0 001.06 1.06h.11a1.17 1.17 0 001.16-1.06v-1.78a.74.74 0 000-.21 1.17 1.17 0 00-1.16-1.06z" transform="translate(-1 -1)" fill="#ffffff"></path><path class="cls-1" d="M19 1a18 18 0 000 36 18 18 0 000-36zm-8.44 12.79A3.87 3.87 0 0117.18 11a3.81 3.81 0 011.14 2.75v7.35a3.88 3.88 0 11-7.76 0zm16.19 14.47a1.38 1.38 0 01-.89.55H11.69a1.38 1.38 0 01-.88-.55 1.33 1.33 0 01-.24-1 1.35 1.35 0 011.34-1.14h14A1.36 1.36 0 0127 27.24a1.42 1.42 0 01-.25 1.02zm.7-13.5a1.36 1.36 0 01-1.35 1.34h-.36a4.11 4.11 0 011.71 3.3v1.78a3.88 3.88 0 01-7.76 0v-7.4a3.88 3.88 0 117.76 0z" transform="translate(-1 -1)" fill="#ffffff"></path><path class="cls-1" d="M14.33 22.2h.1a1.17 1.17 0 001.17-1.06v-7.61a1.17 1.17 0 00-1.17-1.06h-.1a1.17 1.17 0 00-.79.42 1.15 1.15 0 00-.27.85v7.4a1.17 1.17 0 001.06 1.06zm10.41-8.41a.74.74 0 000-.21 1.16 1.16 0 00-1.16-1.06h-.11a1.17 1.17 0 00-.79.42 1.13 1.13 0 00-.27.85v1.83a7.48 7.48 0 011.16-.12 4.09 4.09 0 011.58.32 1.73 1.73 0 01-.41-1.06z" transform="translate(-1 -1)" fill="#ffffff"></path></g></g></g></svg>