<svg xmlns="http://www.w3.org/2000/svg" data-v-dcd896ce="" data-v-d689731a="" aria-hidden="true" class="svg-icon" viewBox="0 0 36 36" width="36"  height="36" ><g fill="#a1a1b2" id="icon-qg_lottery"><defs><style>#icon-qg_lottery .cls-1{fill:#a1a1b2}</style></defs><g id="icon-qg_lottery_图层_2" data-name="图层 2"><g id="icon-qg_lottery_图层_1-2" data-name="图层 1-2"><g id="icon-qg_lottery_图层_2-2" data-name="图层 2-2"><g id="icon-qg_lottery_图层_1-2-2" data-name="图层 1-2-2"><path class="cls-1" d="M11.91 28.82h-.22a1.38 1.38 0 01-.88-.55 1.33 1.33 0 01-.24-1 1.35 1.35 0 011.34-1.14h14a1.36 1.36 0 010 2.68h-14zM14.44 25a3.91 3.91 0 01-3.88-3.84v-7.4A3.87 3.87 0 0117.18 11a3.81 3.81 0 011.14 2.75v7.35a3.92 3.92 0 01-3.88 3.9zm-.11-12.56a1.17 1.17 0 00-.79.42 1.15 1.15 0 00-.27.85v7.4a1.17 1.17 0 001.06 1.06h.1a1.17 1.17 0 001.17-1.06v-7.58a1.17 1.17 0 00-1.17-1.06zM23.57 25a3.9 3.9 0 01-3.88-3.89v-7.4a3.88 3.88 0 117.76 0v1a1.36 1.36 0 01-1.33 1.39h-.38a4.11 4.11 0 011.71 3.3v1.78A3.89 3.89 0 0123.57 25zm-.1-6.94a1.18 1.18 0 00-1.06 1.27v1.78a1.17 1.17 0 001.06 1.06h.11a1.17 1.17 0 001.16-1.06v-1.75a.74.74 0 000-.21 1.17 1.17 0 00-1.16-1.06zm.1-2.59a4.09 4.09 0 011.58.32 1.73 1.73 0 01-.41-1.06v-1a.74.74 0 000-.21 1.16 1.16 0 00-1.16-1.06h-.11a1.17 1.17 0 00-.79.42 1.13 1.13 0 00-.27.85v1.83a7.48 7.48 0 011.16-.12z" transform="translate(-1 -1)" fill="#a1a1b2"></path><path class="cls-1" d="M19 37a18 18 0 1118-18 18 18 0 01-18 18zm0-33.31A15.29 15.29 0 1034.29 19 15.3 15.3 0 0019 3.69z" transform="translate(-1 -1)" fill="#a1a1b2"></path></g></g></g></g></g></svg>