<svg xmlns="http://www.w3.org/2000/svg" data-v-dcd896ce="" data-v-d689731a="" aria-hidden="true" class="svg-icon" viewBox="0 0 28.41 36" width="28.41"  height="36" ><g fill="#a1a1b2" id="icon-qg_chess"><defs><style>#icon-qg_chess .cls-1{fill:#a1a1b2}</style></defs><g id="icon-qg_chess_图层_2" data-name="图层 2"><g id="icon-qg_chess_图层_1-2" data-name="图层 1-2"><path class="cls-1" d="M29.42 1H8.59A3.79 3.79 0 004.8 4.79v28.42A3.78 3.78 0 008.58 37h20.84a3.8 3.8 0 003.78-3.79V4.79A3.8 3.8 0 0029.42 1zM8.59 3.41h20.83a1.4 1.4 0 011.38 1.38v28.42a1.4 1.4 0 01-1.38 1.38H8.59a1.41 1.41 0 01-1.39-1.38V4.8a1.41 1.41 0 011.39-1.39z" transform="translate(-4.8 -1)" fill="#a1a1b2"></path><path class="cls-1" d="M10.51 21.4a3.61 3.61 0 002.05-.78 21.19 21.19 0 002-3l.18-.27a1.06 1.06 0 00.86.42h.12v.1a3.4 3.4 0 01-1.64 1.4 1.62 1.62 0 00-.61 1.32c.06.32.22.39.37.39a.72.72 0 00.34-.11l.08-.07a3.28 3.28 0 01.85-.39v.11a2.9 2.9 0 01-1.46 1.21c-.26.06-.42.42-.47 1.07v.2a.72.72 0 00.1.57.36.36 0 00.3.12h.17a3.48 3.48 0 001.64-.92h.24c.16 0 .24.09.24.28a6.3 6.3 0 01-.73 1.71.62.62 0 01-.5.22c-.31-.06-.54-.31-.68-.78v-.1a.22.22 0 00-.21-.23c-.14 0-.24.14-.24.4a3.44 3.44 0 00.94 2.48 1 1 0 00.57.26.52.52 0 00.45-.27 5.9 5.9 0 001.26-1.94 7.69 7.69 0 01.55-1.37 1.54 1.54 0 01.91-.31 3.54 3.54 0 011.7.62 2.55 2.55 0 01-2 1.42 2 2 0 01-.63-.11.28.28 0 00-.23-.12H17c-.08.07-.09.21 0 .43a1.44 1.44 0 001.31.88h.26A3.11 3.11 0 0021 24.71c0-.06.09-.11.13-.16l.94.75.21.16a11.35 11.35 0 001 .71l.2.12a2.43 2.43 0 00.32.24 10.06 10.06 0 001.35 1.09.69.69 0 00.3.09c.23 0 .38-.16.47-.46a1.7 1.7 0 00-.77-2.08c-.17-.12-.39-.25-.67-.43a16.66 16.66 0 00-2.68-1.32l.15-.33a7.55 7.55 0 00.6-1.25c.17-.55.12-.9-.11-1.07a1.22 1.22 0 00-.92-.48 7 7 0 011.63-.89.47.47 0 00.36-.28 1 1 0 00-.15-.75 1.06 1.06 0 00-.87-.6.7.7 0 00-.46.16h-.12c-.06 0-.12-.1-.12-.18a.79.79 0 01.16-.4l.16-.48a.92.92 0 00.11-.74v-.07a1.57 1.57 0 01.17.21h-.05l.26.27 1.2 1.25A2.59 2.59 0 0025.49 19a7.29 7.29 0 003.44-.17.44.44 0 00.25-.31.73.73 0 00-.25-.58c-.46-.22-.94-.42-1.41-.59a11.68 11.68 0 01-1.66-.74 20.11 20.11 0 01-3.45-2c-.12-.11-.25-.21-.38-.31a8.65 8.65 0 012-.81c.22-.1.44-.32.21-.85a4.38 4.38 0 00-.7-1.12.68.68 0 00-.37-.15c-.11 0-.28 0-.31.34A5.73 5.73 0 0121 13.33a1.85 1.85 0 01-.44-.18A2 2 0 0020 13a4.42 4.42 0 001.2-.8l.1-.2a1 1 0 00.34-.34 2.56 2.56 0 01.48-.33c.27-.14.3-.43.1-.86a3.73 3.73 0 00-1.88-1.2.46.46 0 00-.41.15.45.45 0 000 .41.75.75 0 01.15.9 3.56 3.56 0 01-1.54 1.46c-.23.12-.48.21-.74.33h-.17c.27-.5.34-.83.21-1a4.62 4.62 0 00-1-.92.74.74 0 00-.41-.13.72.72 0 00-.51.22 4.72 4.72 0 01-1.32.82.74.74 0 01-.41.16.39.39 0 01-.39-.2.33.33 0 00-.16-.05h-.17l-.11.11a.32.32 0 00.07.25c.37.84.83 1.31 1.38 1.4H15c0 .16-.18.48-.4 1l-.25.6a.42.42 0 000 .31 2.82 2.82 0 00-1.94-.77h-.36a.34.34 0 00-.3.16.47.47 0 00.12.31 17.22 17.22 0 011.63 1.57 12.13 12.13 0 01-3.33 4.4c-.2.14-.26.28-.17.45a.71.71 0 00.51.19zM19.8 14a2.68 2.68 0 01-1 .46c-.41.16-.48.25-.48.32s.4.25.67.25a6.25 6.25 0 001.81-.4 8.58 8.58 0 00.73.71h-.46a.74.74 0 00-.62.21 1.94 1.94 0 01-.73.4 1.91 1.91 0 00-.52.33 2.7 2.7 0 00-.61-.25h-.14c-.06.08-.06.22 0 .5s.23.71-.5 2.32a1.8 1.8 0 00.24 1.56c.15.19.28.28.41.28a.49.49 0 00.4-.29 6.37 6.37 0 00.72-3.29 1.2 1.2 0 01.7-.23c.06 0 .17 0 .17.23a2.22 2.22 0 000 1.68.54.54 0 00.41.29h.1a1.61 1.61 0 00-.39.39l-.91.67a3.92 3.92 0 01-1.88.81.36.36 0 00-.22.16.66.66 0 00.08.53A.91.91 0 0019 22c.3-.18.6-.34.9-.49l.58-.34a.48.48 0 01.17 0h.15v.35a4.07 4.07 0 01-.38 1.18 5.37 5.37 0 00-2.27-.5.84.84 0 00-.79.5l-.07.12c-.12-1-.58-1.48-1.38-1.48h-.1a3.7 3.7 0 01.85-.67c.17-.13.34-.28.5-.43a.88.88 0 00.17-1 .9.9 0 00-.75-.48l.42-.42a4.89 4.89 0 00.82-.82.74.74 0 00.34-.5.65.65 0 00-.25-.52 1.53 1.53 0 00-1.1-.6 1 1 0 00-.61.21 1.79 1.79 0 01-.93.51h-.15l1.2-2.08c.51-.74.71-1.06.68-1.12a14.75 14.75 0 012.19.38 3.48 3.48 0 01.61.2z" transform="translate(-4.8 -1)" fill="#a1a1b2"></path></g></g></g></svg>