<svg xmlns="http://www.w3.org/2000/svg" data-v-dcd896ce="" data-v-d689731a="" aria-hidden="true" class="svg-icon" viewBox="0 0 28.38 36" width="28.38"  height="36" ><g fill="#a1a1b2" id="icon-qg_chess_h"><defs><style>#icon-qg_chess_h .cls-1{fill:#fff}</style></defs><g id="icon-qg_chess_h_图层_2" data-name="图层 2"><g id="icon-qg_chess_h_图层_1-2" data-name="图层 1-2"><g id="icon-qg_chess_h_图层_2-2" data-name="图层 2-2"><g id="icon-qg_chess_h_图层_1-2-2" data-name="图层 1-2-2"><path class="cls-1" d="M29.46 1H8.54a3.73 3.73 0 00-3.73 3.73v28.54A3.73 3.73 0 008.54 37h20.92a3.74 3.74 0 003.73-3.73V4.73A3.74 3.74 0 0029.46 1zm-.52 17.74a7.16 7.16 0 01-3.41.16 2.56 2.56 0 01-1.67-1.16l-1.23-1.3-.26-.28.26.28a4.51 4.51 0 00-.44-.54 1.45 1.45 0 01-.16.91c-.06.17-.12.34-.17.5a.8.8 0 00-.16.42c0 .22.11.3.33.25.44-.34.86-.2 1.25.41s.22.81-.16.92a6.6 6.6 0 00-1.67.91.85.85 0 00-.25.17 1.11 1.11 0 011.16.42c.22.16.25.49.09 1a8.22 8.22 0 01-.58 1.24l-.17.34c.72.33 1.64.8 2.75 1.41.28.17.49.3.66.42a1.65 1.65 0 01.75 2q-.16.59-.66.33a9.32 9.32 0 01-1.34-1.08l-.33-.25c-.22-.16-.64-.44-1.25-.83a8.52 8.52 0 01-1.16-.92c-.95 1.23-1.92 1.78-2.92 1.67a1.34 1.34 0 01-1.2-.83c-.05-.16-.05-.28 0-.34s.14 0 .25.09c1 .39 1.92-.06 2.75-1.33-1.11-.83-2-1-2.75-.42a6.65 6.65 0 00-.58 1.41 6 6 0 01-1.25 1.92c-.22.33-.53.33-.92 0a3.29 3.29 0 01-.91-2.42c0-.22 0-.33.16-.33s.11.08.17.25c.16.5.41.77.75.83a.66.66 0 00.58-.25A6.91 6.91 0 0016 23c0-.34-.19-.45-.58-.34a3.55 3.55 0 01-1.66.92c-.34.05-.48-.14-.42-.59v-.16c0-.61.19-.95.42-1a3 3 0 001.49-1.25c.06-.11.06-.16 0-.16s0-.09-.16-.09a6.46 6.46 0 00-.83.42l-.09.08c-.33.17-.52.09-.58-.24a1.6 1.6 0 01.58-1.25 3.31 3.31 0 001.69-1.44.16.16 0 000-.22 1 1 0 01-.92-.41 33.64 33.64 0 01-2.33 3.33 3.47 3.47 0 01-2 .75.59.59 0 01-.42-.17c-.06-.11 0-.22.16-.33a12 12 0 003.33-4.33 11.91 11.91 0 00-1.66-1.67.39.39 0 01-.11-.27.33.33 0 01.25-.08 2.76 2.76 0 012.25.75c.11-.22.25-.55.42-1s.36-.83.41-1c-.66 0-1.22-.5-1.66-1.5-.06-.11-.06-.19 0-.25a.2.2 0 01.25 0c.22.23.49.23.83 0a4.58 4.58 0 001.33-.83.65.65 0 01.83-.08 5.41 5.41 0 011 .91c.11.17 0 .5-.25 1a3.44 3.44 0 001.09-.33 3.75 3.75 0 001.58-1.5.85.85 0 00-.17-1c-.11-.28 0-.42.34-.42a3.68 3.68 0 011.8 1.17c.17.38.14.63-.08.75a2.41 2.41 0 00-.5.33 1.07 1.07 0 01-.33.34L21 12a4.78 4.78 0 01-1.25.83c.11.06.36.17.75.34a1.26 1.26 0 00.42.16 5.59 5.59 0 001.92-1.66c.05-.34.25-.39.58-.17a4.7 4.7 0 01.67 1.09c.16.38.11.63-.17.75a8.54 8.54 0 00-2 .83 15.55 15.55 0 003.91 2.49 10 10 0 001.67.75 14.47 14.47 0 011.41.59q.45.49.03.74z" transform="translate(-4.81 -1)" fill="#ffffff"></path><path class="cls-1" d="M20.81 14.56a8.81 8.81 0 01-1.81.34c-.34 0-.53-.06-.59-.17s.14-.14.42-.25a2.88 2.88 0 001.08-.5 10.6 10.6 0 00-2.83-.66c0 .11-.3.5-.75 1.16l-1.25 2.17a1.46 1.46 0 001.25-.5c.5-.34 1-.2 1.58.42.34.33.31.63-.08.91a5.43 5.43 0 01-.83.83l-.5.5a1 1 0 01.83.5c.17.44.11.75-.16.91a2.86 2.86 0 00-.5.42 4.17 4.17 0 00-1 .83c1-.11 1.47.39 1.58 1.5a1 1 0 01.92-.67 5.28 5.28 0 012.25.5 2.83 2.83 0 00.49-1.25v-.08c.06-.17.06-.28 0-.34a.58.58 0 00-.41 0l-.59.34A10 10 0 0019 22a.84.84 0 01-1.15-.24v-.06c-.16-.33-.14-.53.09-.58a4 4 0 001.91-.83l.91-.67a1.4 1.4 0 01.42-.42c-.67-.16-.83-.83-.5-2 0-.22-.08-.33-.25-.33a1.27 1.27 0 00-.75.25 7 7 0 01-.75 3.33c-.22.33-.44.33-.67 0a1.71 1.71 0 01-.24-1.5c.61-1.33.77-2.13.49-2.41 0-.28 0-.42.09-.42a3 3 0 01.58.25 6.65 6.65 0 01.58-.33 1.8 1.8 0 00.75-.42c.17-.22.61-.25 1.33-.09a2 2 0 00-.33-.24 3.44 3.44 0 01-.7-.73z" transform="translate(-4.81 -1)" fill="#ffffff"></path></g></g></g></g></g></svg>