<svg xmlns="http://www.w3.org/2000/svg" data-v-dcd896ce="" data-v-d689731a="" aria-hidden="true" class="svg-icon" viewBox="0 0 36 35.96" width="36"  height="35.96" ><g fill="#a1a1b2" id="icon-qg_sport_h"><g data-name="图层 2"><path d="M32 29.22c.31-.37.61-.78.88-1.17.25-.37.49-.73.71-1.12l.18-.35A17.84 17.84 0 0036 17.65v-.31l-.06-.12a18 18 0 00-1.68-6.86L34 9.82l-.33-.62c0-.08-.08-.16-.13-.24a18.08 18.08 0 00-6.82-6.71l-.29-.15h-.08A18 18 0 0022.74.69h-.08c-.6-.16-1.2-.29-1.81-.4-.22 0-.44-.08-.66-.1l-.71-.08a7.38 7.38 0 00-1.33-.12h-.22a9.64 9.64 0 00-1.7.09h-.13a17.77 17.77 0 00-7.41 2.46l-.27.18-.05.1c-.4.25-.78.52-1.15.8-.3.23-.6.46-.88.71L6 4.72c-.31.29-.6.56-.89.87s-.47.51-.7.77L4 6.77A17.8 17.8 0 002.4 9.1c-.06.1-.12.22-.19.35A18 18 0 000 18.36v.33l.06.1a17.7 17.7 0 001.63 6.73q.16.38.36.75c.08.16.17.32.26.47l.15.3a18 18 0 006.83 6.73l.28.15h.09a18.43 18.43 0 003.59 1.4c.61.16 1.23.3 1.86.4l.64.1.72.07c.44 0 .88.06 1.32.07H18a12 12 0 001.69-.09h.15a18.15 18.15 0 007.4-2.45l.27-.17.06-.11c.39-.25.77-.51 1.14-.79.31-.23.6-.47.89-.72l.3-.27a11.8 11.8 0 001-1c.32-.37.44-.47.65-.72s.35-.28.45-.42zm-.38-3.71l-.37.63c-.19.29-.37.59-.58.87l-.34.45c-.26.34-.53.67-.82 1-.08.09-.15.18-.24.27a15.88 15.88 0 01-2.21 1.89l-3.49-6 3-5.14h7A15.7 15.7 0 0132 24.84a5.33 5.33 0 00-.38.67zM6 27.86c-.26-.33-.51-.66-.74-1-.11-.16-.22-.32-.32-.49s-.33-.51-.48-.78-.41-.79-.59-1.19a2.26 2.26 0 01-.11-.22 15.91 15.91 0 01-1.17-4.64h7l3 5.14-3.59 6a14.83 14.83 0 01-3-2.76zm7.48-24.75a11.45 11.45 0 011.28-.33l.48-.08 1.09-.17a5.42 5.42 0 001.13-.08H18a15.78 15.78 0 016.42 1.43l-3.49 6H15l-3.47-6a19.18 19.18 0 011.82-.73zm7.81 20.6h-6.58l-3.29-5.72c1-1.69 2.39-4.14 3.29-5.7h6.58l3.3 5.7z" fill="#ffffff" data-name="图层 1-2"></path></g></g></svg>