<svg xmlns="http://www.w3.org/2000/svg" data-v-dcd896ce="" data-v-d689731a="" aria-hidden="true" class="svg-icon" viewBox="0 0 40 40" width="40"  height="40" ><g fill="#a1a1b2" id="icon-qg_sport"><path d="M34 31.2l.9-1.2c.3-.4.5-.7.7-1.1l.2-.4c1.5-2.7 2.3-5.8 2.2-8.9v-.3l-.1-.1c-.1-2.4-.7-4.7-1.7-6.9l-.2-.5-.3-.6c0-.1-.1-.2-.1-.2-1.6-2.8-4-5.1-6.8-6.7l-.3-.2h-.1C27.2 3.5 26 3 24.7 2.7h-.1c-.6-.2-1.2-.3-1.8-.4-.2 0-.4-.1-.7-.1l-.7-.1C21 2 20.6 2 20.1 2h-.2c-.6 0-1.1 0-1.7.1h-.1c-2.6.3-5.1 1.1-7.4 2.5l-.3.2-.1.1c-.3.2-.7.5-1.1.8-.3.2-.6.4-.9.7-.2.2-.2.2-.4.3-.3.3-.6.6-.8.9s-.5.5-.7.8l-.4.4c-.6.7-1.1 1.5-1.6 2.3-.1.1-.1.2-.2.4C2.7 14.2 2 17.2 2 20.4v.3l.1.1c.1 2.3.6 4.6 1.6 6.7.1.3.2.5.4.8.1.2.2.3.3.5l.1.2c1.6 2.8 4 5.1 6.8 6.7l.3.2h.1c1.1.6 2.3 1.1 3.6 1.4.6.2 1.2.3 1.9.4l.6.1.7.1c.4 0 .9.1 1.3.1h.2c.6 0 1.1 0 1.7-.1h.1c2.6-.3 5.1-1.1 7.4-2.5l.3-.2.1-.1c.4-.3.8-.5 1.1-.8.3-.2.6-.5.9-.7l.3-.3c.3-.3.7-.6 1-1 .3-.4.4-.5.7-.7s.3-.2.4-.4zm-.4-3.7l-.4.6-.6.9-.3.5c-.3.3-.5.7-.8 1-.1.1-.1.2-.2.3-.7.7-1.4 1.3-2.2 1.9l-3.5-6 3-5.1h7c-.2 1.9-.7 3.7-1.6 5.4-.2 0-.2.3-.4.5zM23 35.3c-.5.1-.9.2-1.4.2h-.4c-.4 0-.8.1-1.2.1-.6 0-1.1 0-1.7-.1h-.1c-.6-.1-1.1-.2-1.6-.3h-.1c-1-.2-1.9-.6-2.8-1l3.5-6H23l3.5 6c-1.1.5-2.2.9-3.3 1.1H23zM8 29.9c-.3-.3-.5-.6-.7-1-.1-.2-.2-.3-.3-.5s-.3-.5-.5-.8-.4-.8-.6-1.2c0-.1-.1-.2-.1-.2-.6-1.5-1-3-1.2-4.6h7l3 5.1-3.6 6c-1.1-.8-2.1-1.7-3-2.8zM6.4 12.5l.3-.6c.1-.2.4-.6.6-.9l.3-.4c.3-.4.6-.7.9-1.1l.2-.2c.7-.7 1.5-1.3 2.3-1.9l3.5 6-3 5.1h-7c.2-1.8.7-3.6 1.5-5.3.1-.2.3-.5.4-.7zm9.1-7.4c.4-.1.9-.2 1.3-.3l.5-.1c.4-.1.7-.1 1.1-.2s.8 0 1.1-.1h.5c2.2 0 4.4.5 6.4 1.4l-3.5 6H17l-3.5-6c.6-.3 1.2-.5 1.8-.7h.2zm16.6 5.1c.2.3.5.6.7.9l.4.6c.1.2.3.4.4.7 1 1.9 1.7 4 1.9 6.1h-7l-3-5.1 3.5-6c1 .7 2 1.6 2.9 2.6l.2.2zm-8.8 15.5h-6.6L13.4 20l3.3-5.7h6.6l3.3 5.7-3.3 5.7z" fill="#a1a1b2"></path></g></svg>