<svg xmlns="http://www.w3.org/2000/svg" data-v-dcd896ce="" data-v-d689731a="" aria-hidden="true" class="svg-icon" viewBox="0 0 34 34" width="34"  height="34" ><g fill="#a1a1b2" id="icon-qg_play"><defs><style>#icon-qg_play .cls-1{fill:#a1a1b2}</style></defs><g id="icon-qg_play_图层_2" data-name="图层 2"><g id="icon-qg_play_图层_1-2" data-name="图层 1-2"><g id="icon-qg_play_图层_2-2" data-name="图层 2-2"><g id="icon-qg_play_图层_1-2-2" data-name="图层 1-2-2"><path class="cls-1" d="M8.9 36A6.89 6.89 0 012 29.2V8.9A6.91 6.91 0 018.9 2h20.3A6.89 6.89 0 0136 8.9v20.3a6.83 6.83 0 01-6.9 6.8zm0-31.6a4.46 4.46 0 00-4.5 4.4v20.3a4.46 4.46 0 004.4 4.5h20.3a4.46 4.46 0 004.5-4.4V8.9a4.55 4.55 0 00-4.5-4.5H8.9z" transform="translate(-2 -2)" fill="#a1a1b2"></path><path class="cls-1" d="M29.2 2.1H8.9a6.81 6.81 0 00-6.8 6.8v20.3A6.87 6.87 0 008.9 36h20.3a6.81 6.81 0 006.8-6.8V8.9a6.87 6.87 0 00-6.8-6.8zm4.5 27.1a4.48 4.48 0 01-4.5 4.5H8.9a4.63 4.63 0 01-4.6-4.5V8.9a4.59 4.59 0 014.6-4.6h20.3a4.5 4.5 0 014.5 4.6z" transform="translate(-2 -2)" fill="#a1a1b2"></path><path class="cls-1" d="M19 22.8a3.8 3.8 0 113.8-3.8 3.8 3.8 0 01-3.8 3.8zm0-5.2a1.4 1.4 0 101.4 1.4 1.37 1.37 0 00-1.4-1.4z" transform="translate(-2 -2)" fill="#a1a1b2"></path><path class="cls-1" d="M19 15.3a3.69 3.69 0 00-3.7 3.7 3.7 3.7 0 007.4 0 3.76 3.76 0 00-3.7-3.7zm0 5.2a1.47 1.47 0 01-1.5-1.5 1.5 1.5 0 013 0 1.7 1.7 0 01-1.5 1.5zm-7.6-6.2a3.8 3.8 0 113.8-3.8 3.8 3.8 0 01-3.8 3.8zm0-5.2a1.39 1.39 0 00-1.1 1.6 1.49 1.49 0 001.2 1.2h.2a1.05 1.05 0 00.9-.5 1.21 1.21 0 00.3-1 1.49 1.49 0 00-1.4-1.3z" transform="translate(-2 -2)" fill="#a1a1b2"></path><path class="cls-1" d="M11.4 6.8a3.61 3.61 0 00-3.6 3.7 3.67 3.67 0 003.7 3.6 3.59 3.59 0 003.6-3.6 3.57 3.57 0 00-3.7-3.7zm0 5.1a1.4 1.4 0 01-1.3-1.6A1.46 1.46 0 0111.7 9a1.4 1.4 0 011.3 1.6 1.59 1.59 0 01-1.4 1.4h-.2zm15.2 2.4a3.8 3.8 0 113.8-3.8 3.93 3.93 0 01-3.8 3.8zm0-5.2a1.35 1.35 0 101.3 1.4 1.42 1.42 0 00-1.3-1.4z" transform="translate(-2 -2)" fill="#a1a1b2"></path><path class="cls-1" d="M26.6 6.8a3.65 3.65 0 103.6 3.7 3.67 3.67 0 00-3.6-3.7zm0 5.1a1.45 1.45 0 111.4-1.5v.1a1.43 1.43 0 01-1.4 1.4zM11.4 31.3a3.8 3.8 0 113.8-3.8 3.8 3.8 0 01-3.8 3.8zm0-5.2a1.4 1.4 0 00-1.3 1.3 1.37 1.37 0 001.3 1.5h.2a1.35 1.35 0 00-.1-2.7l-.1-.1z" transform="translate(-2 -2)" fill="#a1a1b2"></path><path class="cls-1" d="M11.4 23.9a3.65 3.65 0 103.7 3.6 3.55 3.55 0 00-3.7-3.6zm0 5.1a1.5 1.5 0 11.2-3 1.55 1.55 0 011.4 1.6 1.59 1.59 0 01-1.4 1.4zm15.2 2.3a3.8 3.8 0 113.8-3.8 3.93 3.93 0 01-3.8 3.8zm0-5.2a1.35 1.35 0 101.3 1.4 1.42 1.42 0 00-1.3-1.4z" transform="translate(-2 -2)" fill="#a1a1b2"></path><path class="cls-1" d="M26.6 23.9a3.65 3.65 0 103.6 3.7v-.1a3.59 3.59 0 00-3.6-3.6zm0 5.1a1.45 1.45 0 111.4-1.5 1.45 1.45 0 01-1.4 1.5z" transform="translate(-2 -2)" fill="#a1a1b2"></path></g></g></g></g></g></svg>