<svg xmlns="http://www.w3.org/2000/svg" data-v-dcd896ce="" data-v-d689731a="" aria-hidden="true" class="svg-icon" viewBox="0 0 34 34" width="34"  height="34" ><g fill="#ffffff" id="icon-qg_play_h"><defs><style>#icon-qg_play_h .cls-1{fill:#fff}</style></defs><g id="icon-qg_play_h_图层_2" data-name="图层 2"><g id="icon-qg_play_h_图层_1-2" data-name="图层 1-2"><g id="icon-qg_play_h_图层_2-2" data-name="图层 2-2"><g id="icon-qg_play_h_图层_1-2-2" data-name="图层 1-2-2"><path class="cls-1" d="M26.6 26.1a1.5 1.5 0 10-.2 3h.2a1.5 1.5 0 000-3zM11.4 8.9a1.62 1.62 0 00-1.4 1.6 1.42 1.42 0 001.6 1.4 1.45 1.45 0 001.4-1.5 1.56 1.56 0 00-1.6-1.5z" transform="translate(-2 -2)" fill="#ffffff"></path><circle class="cls-1" cx="9.5" cy="25.6" r="1.5" fill="#ffffff"></circle><path class="cls-1" d="M19 17.5a1.5 1.5 0 101.5 1.5 1.54 1.54 0 00-1.5-1.5zm7.6-8.6a1.5 1.5 0 00-.2 3h.2a1.5 1.5 0 000-3z" transform="translate(-2 -2)" fill="#ffffff"></path><path class="cls-1" d="M29.2 2H8.8A6.74 6.74 0 002 8.8v20.4A6.74 6.74 0 008.8 36h20.4a6.81 6.81 0 006.8-6.8V8.8A6.74 6.74 0 0029.2 2zM11.4 31.3a3.7 3.7 0 113.7-3.7 3.69 3.69 0 01-3.7 3.7zm0-17.2a3.76 3.76 0 01-3.7-3.7 3.7 3.7 0 117.4 0 3.69 3.69 0 01-3.7 3.7zm7.6 8.6a3.7 3.7 0 113.7-3.7 3.76 3.76 0 01-3.7 3.7zm7.6 8.6a3.7 3.7 0 113.7-3.7 3.83 3.83 0 01-3.7 3.7zm0-17.2a3.7 3.7 0 113.7-3.7 3.83 3.83 0 01-3.7 3.7z" transform="translate(-2 -2)" fill="#ffffff"></path></g></g></g></g></g></svg>